<svg width="432" height="282" viewBox="0 0 432 282" fill="none" xmlns="http://www.w3.org/2000/svg">
<path d="M67.9091 172.773L203.996 248.977L157.435 276.676C151.647 280.119 142.192 280.243 136.317 276.953L21.5078 212.663C15.6321 209.373 15.5606 203.915 21.3481 200.472L67.9091 172.773Z" fill="#C4C4C4"/>
<path d="M270.797 52.0706L406.884 128.275L203.987 248.977L67.9002 172.773L270.797 52.0706Z" fill="white"/>
<path d="M383.79 144.116L373.475 105.635L423.903 76.5216L430.465 111.971L383.79 144.116Z" fill="#C4C4C4"/>
<path d="M150.155 279.28L135.544 249.97L191.976 213.696L204.633 249.066L150.155 279.28Z" fill="#C4C4C4"/>
<path d="M57.4633 140.796L191.777 216.007L146.089 243.186C140.784 246.342 132.117 246.456 126.731 243.44L11.9219 179.15C6.5359 176.134 6.47038 171.131 11.7756 167.975L57.4633 140.796Z" fill="#C4C4C4" stroke="#BEBEBE" stroke-width="2.03221"/>
<path d="M373.211 109.095L237.124 32.8908L283.685 5.192C289.472 1.74906 298.927 1.62523 304.803 4.91543L419.612 69.205C425.488 72.4952 425.559 77.9534 419.772 81.3964L373.211 109.095Z" fill="#C4C4C4"/>
<path d="M237.123 32.8912L373.209 109.096L193.533 215.984L57.4464 139.78L237.123 32.8912Z" fill="white"/>
<g filter="url(#filter0_d)">
<rect width="138.912" height="54.7292" rx="4.06442" transform="matrix(0.872517 0.488583 -0.859423 0.511266 236.191 40.2971)" fill="#7E3CA2"/>
</g>
<g filter="url(#filter1_d)">
<rect width="94.697" height="2.65891" rx="1.32946" transform="matrix(0.872517 0.488583 -0.859423 0.511266 258.021 63.092)" fill="white"/>
</g>
<g filter="url(#filter2_d)">
<rect width="94.697" height="2.65891" rx="1.32946" transform="matrix(0.872517 0.488583 -0.859423 0.511266 245.881 67.3157)" fill="white"/>
</g>
<g filter="url(#filter3_d)">
<rect width="39.8897" height="2.65891" rx="1.32946" transform="matrix(0.872517 0.488583 -0.859423 0.511266 237.86 75.5504)" fill="white"/>
</g>
<path d="M35.2164 193.393L6.52838 175.477L17.1144 207.857L35.2164 193.393Z" fill="#C4C4C4"/>
<defs>
<filter id="filter0_d" x="150.573" y="21.1646" width="245.403" height="174.76" filterUnits="userSpaceOnUse" color-interpolation-filters="sRGB">
<feFlood flood-opacity="0" result="BackgroundImageFix"/>
<feColorMatrix in="SourceAlpha" type="matrix" values="0 0 0 0 0 0 0 0 0 0 0 0 0 0 0 0 0 0 127 0"/>
<feOffset dy="20.3221"/>
<feGaussianBlur stdDeviation="20.3221"/>
<feColorMatrix type="matrix" values="0 0 0 0 0.560784 0 0 0 0 0.356863 0 0 0 0 0.670588 0 0 0 0.4 0"/>
<feBlend mode="normal" in2="BackgroundImageFix" result="effect1_dropShadow"/>
<feBlend mode="normal" in="SourceGraphic" in2="effect1_dropShadow" result="shape"/>
</filter>
<filter id="filter1_d" x="215.766" y="43.159" width="164.85" height="128.137" filterUnits="userSpaceOnUse" color-interpolation-filters="sRGB">
<feFlood flood-opacity="0" result="BackgroundImageFix"/>
<feColorMatrix in="SourceAlpha" type="matrix" values="0 0 0 0 0 0 0 0 0 0 0 0 0 0 0 0 0 0 127 0"/>
<feOffset dy="20.3221"/>
<feGaussianBlur stdDeviation="20.3221"/>
<feColorMatrix type="matrix" values="0 0 0 0 0.560784 0 0 0 0 0.356863 0 0 0 0 0.670588 0 0 0 0.4 0"/>
<feBlend mode="normal" in2="BackgroundImageFix" result="effect1_dropShadow"/>
<feBlend mode="normal" in="SourceGraphic" in2="effect1_dropShadow" result="shape"/>
</filter>
<filter id="filter2_d" x="203.627" y="47.3826" width="164.85" height="128.137" filterUnits="userSpaceOnUse" color-interpolation-filters="sRGB">
<feFlood flood-opacity="0" result="BackgroundImageFix"/>
<feColorMatrix in="SourceAlpha" type="matrix" values="0 0 0 0 0 0 0 0 0 0 0 0 0 0 0 0 0 0 127 0"/>
<feOffset dy="20.3221"/>
<feGaussianBlur stdDeviation="20.3221"/>
<feColorMatrix type="matrix" values="0 0 0 0 0.560784 0 0 0 0 0.356863 0 0 0 0 0.670588 0 0 0 0.4 0"/>
<feBlend mode="normal" in2="BackgroundImageFix" result="effect1_dropShadow"/>
<feBlend mode="normal" in="SourceGraphic" in2="effect1_dropShadow" result="shape"/>
</filter>
<filter id="filter3_d" x="195.605" y="55.6174" width="117.029" height="101.359" filterUnits="userSpaceOnUse" color-interpolation-filters="sRGB">
<feFlood flood-opacity="0" result="BackgroundImageFix"/>
<feColorMatrix in="SourceAlpha" type="matrix" values="0 0 0 0 0 0 0 0 0 0 0 0 0 0 0 0 0 0 127 0"/>
<feOffset dy="20.3221"/>
<feGaussianBlur stdDeviation="20.3221"/>
<feColorMatrix type="matrix" values="0 0 0 0 0.560784 0 0 0 0 0.356863 0 0 0 0 0.670588 0 0 0 0.4 0"/>
<feBlend mode="normal" in2="BackgroundImageFix" result="effect1_dropShadow"/>
<feBlend mode="normal" in="SourceGraphic" in2="effect1_dropShadow" result="shape"/>
</filter>
</defs>
</svg>
