<svg width="410" height="269" viewBox="0 0 410 269" fill="none" xmlns="http://www.w3.org/2000/svg">
<path d="M64.5861 164.319L194.014 236.794L149.731 263.138C144.227 266.412 135.234 266.53 129.646 263.401L20.4553 202.257C14.8672 199.128 14.7992 193.937 20.3035 190.662L64.5861 164.319Z" fill="#C4C4C4"/>
<path d="M257.546 49.5226L386.974 121.998L194.005 236.794L64.5777 164.318L257.546 49.5226Z" fill="white"/>
<path d="M365.01 137.064L355.2 100.466L403.16 72.7772L409.401 106.492L365.01 137.064Z" fill="#C4C4C4"/>
<path d="M142.807 265.614L128.912 237.739L182.582 203.24L194.62 236.878L142.807 265.614Z" fill="#C4C4C4"/>
<path d="M54.6514 133.906L182.393 205.437L138.94 231.287C133.895 234.288 125.652 234.396 120.53 231.528L11.3386 170.384C6.21614 167.516 6.15381 162.757 11.1994 159.756L54.6514 133.906Z" fill="#C4C4C4" stroke="#BEBEBE" stroke-width="1.93277"/>
<path d="M354.948 103.757L225.521 31.2815L269.803 4.93804C275.308 1.66357 284.3 1.5458 289.888 4.675L399.079 65.8187C404.667 68.9478 404.735 74.139 399.231 77.4135L354.948 103.757Z" fill="#C4C4C4"/>
<path d="M225.52 31.2817L354.947 103.757L184.063 205.415L54.6353 132.94L225.52 31.2817Z" fill="white"/>
<g filter="url(#filter0_d)">
<rect width="132.114" height="52.0512" rx="3.86554" transform="matrix(0.872517 0.488583 -0.859423 0.511266 224.634 38.3254)" fill="#7E3CA2"/>
</g>
<g filter="url(#filter1_d)">
<rect width="90.0632" height="2.5288" rx="1.2644" transform="matrix(0.872517 0.488583 -0.859423 0.511266 245.395 60.0049)" fill="white"/>
</g>
<g filter="url(#filter2_d)">
<rect width="90.0632" height="2.5288" rx="1.2644" transform="matrix(0.872517 0.488583 -0.859423 0.511266 233.85 64.0219)" fill="white"/>
</g>
<g filter="url(#filter3_d)">
<rect width="37.9378" height="2.5288" rx="1.2644" transform="matrix(0.872517 0.488583 -0.859423 0.511266 226.221 71.8536)" fill="white"/>
</g>
<rect width="132.114" height="52.0512" rx="3.86554" transform="matrix(0.872517 0.488583 -0.859423 0.511266 169.682 70.207)" fill="#C2C0C3"/>
<g filter="url(#filter4_d)">
<rect width="90.0632" height="2.5288" rx="1.2644" transform="matrix(0.872517 0.488583 -0.859423 0.511266 190.443 91.8865)" fill="white"/>
</g>
<g filter="url(#filter5_d)">
<rect width="90.0632" height="2.5288" rx="1.2644" transform="matrix(0.872517 0.488583 -0.859423 0.511266 178.898 95.9034)" fill="white"/>
</g>
<g filter="url(#filter6_d)">
<rect width="37.9378" height="2.5288" rx="1.2644" transform="matrix(0.872517 0.488583 -0.859423 0.511266 171.269 103.735)" fill="white"/>
</g>
<rect width="132.114" height="52.0512" rx="3.86554" transform="matrix(0.872517 0.488583 -0.859423 0.511266 113.566 103.253)" fill="#C3C3C4"/>
<g filter="url(#filter7_d)">
<rect width="90.0632" height="2.5288" rx="1.2644" transform="matrix(0.872517 0.488583 -0.859423 0.511266 134.327 124.933)" fill="white"/>
</g>
<g filter="url(#filter8_d)">
<rect width="90.0632" height="2.5288" rx="1.2644" transform="matrix(0.872517 0.488583 -0.859423 0.511266 122.782 128.95)" fill="white"/>
</g>
<g filter="url(#filter9_d)">
<rect width="37.9378" height="2.5288" rx="1.2644" transform="matrix(0.872517 0.488583 -0.859423 0.511266 115.153 136.781)" fill="white"/>
</g>
<path d="M33.4932 183.93L6.20898 166.891L16.277 197.686L33.4932 183.93Z" fill="#C4C4C4"/>
<defs>
<filter id="filter0_d" x="143.205" y="20.1291" width="233.395" height="166.209" filterUnits="userSpaceOnUse" color-interpolation-filters="sRGB">
<feFlood flood-opacity="0" result="BackgroundImageFix"/>
<feColorMatrix in="SourceAlpha" type="matrix" values="0 0 0 0 0 0 0 0 0 0 0 0 0 0 0 0 0 0 127 0"/>
<feOffset dy="19.3277"/>
<feGaussianBlur stdDeviation="19.3277"/>
<feColorMatrix type="matrix" values="0 0 0 0 0.560784 0 0 0 0 0.356863 0 0 0 0 0.670588 0 0 0 0.4 0"/>
<feBlend mode="normal" in2="BackgroundImageFix" result="effect1_dropShadow"/>
<feBlend mode="normal" in="SourceGraphic" in2="effect1_dropShadow" result="shape"/>
</filter>
<filter id="filter1_d" x="205.208" y="41.0472" width="156.783" height="121.867" filterUnits="userSpaceOnUse" color-interpolation-filters="sRGB">
<feFlood flood-opacity="0" result="BackgroundImageFix"/>
<feColorMatrix in="SourceAlpha" type="matrix" values="0 0 0 0 0 0 0 0 0 0 0 0 0 0 0 0 0 0 127 0"/>
<feOffset dy="19.3277"/>
<feGaussianBlur stdDeviation="19.3277"/>
<feColorMatrix type="matrix" values="0 0 0 0 0.560784 0 0 0 0 0.356863 0 0 0 0 0.670588 0 0 0 0.4 0"/>
<feBlend mode="normal" in2="BackgroundImageFix" result="effect1_dropShadow"/>
<feBlend mode="normal" in="SourceGraphic" in2="effect1_dropShadow" result="shape"/>
</filter>
<filter id="filter2_d" x="193.663" y="45.0642" width="156.783" height="121.867" filterUnits="userSpaceOnUse" color-interpolation-filters="sRGB">
<feFlood flood-opacity="0" result="BackgroundImageFix"/>
<feColorMatrix in="SourceAlpha" type="matrix" values="0 0 0 0 0 0 0 0 0 0 0 0 0 0 0 0 0 0 127 0"/>
<feOffset dy="19.3277"/>
<feGaussianBlur stdDeviation="19.3277"/>
<feColorMatrix type="matrix" values="0 0 0 0 0.560784 0 0 0 0 0.356863 0 0 0 0 0.670588 0 0 0 0.4 0"/>
<feBlend mode="normal" in2="BackgroundImageFix" result="effect1_dropShadow"/>
<feBlend mode="normal" in="SourceGraphic" in2="effect1_dropShadow" result="shape"/>
</filter>
<filter id="filter3_d" x="186.033" y="52.896" width="111.303" height="96.3993" filterUnits="userSpaceOnUse" color-interpolation-filters="sRGB">
<feFlood flood-opacity="0" result="BackgroundImageFix"/>
<feColorMatrix in="SourceAlpha" type="matrix" values="0 0 0 0 0 0 0 0 0 0 0 0 0 0 0 0 0 0 127 0"/>
<feOffset dy="19.3277"/>
<feGaussianBlur stdDeviation="19.3277"/>
<feColorMatrix type="matrix" values="0 0 0 0 0.560784 0 0 0 0 0.356863 0 0 0 0 0.670588 0 0 0 0.4 0"/>
<feBlend mode="normal" in2="BackgroundImageFix" result="effect1_dropShadow"/>
<feBlend mode="normal" in="SourceGraphic" in2="effect1_dropShadow" result="shape"/>
</filter>
<filter id="filter4_d" x="150.256" y="72.9288" width="156.783" height="121.867" filterUnits="userSpaceOnUse" color-interpolation-filters="sRGB">
<feFlood flood-opacity="0" result="BackgroundImageFix"/>
<feColorMatrix in="SourceAlpha" type="matrix" values="0 0 0 0 0 0 0 0 0 0 0 0 0 0 0 0 0 0 127 0"/>
<feOffset dy="19.3277"/>
<feGaussianBlur stdDeviation="19.3277"/>
<feColorMatrix type="matrix" values="0 0 0 0 0.560784 0 0 0 0 0.356863 0 0 0 0 0.670588 0 0 0 0.4 0"/>
<feBlend mode="normal" in2="BackgroundImageFix" result="effect1_dropShadow"/>
<feBlend mode="normal" in="SourceGraphic" in2="effect1_dropShadow" result="shape"/>
</filter>
<filter id="filter5_d" x="138.711" y="76.9458" width="156.783" height="121.867" filterUnits="userSpaceOnUse" color-interpolation-filters="sRGB">
<feFlood flood-opacity="0" result="BackgroundImageFix"/>
<feColorMatrix in="SourceAlpha" type="matrix" values="0 0 0 0 0 0 0 0 0 0 0 0 0 0 0 0 0 0 127 0"/>
<feOffset dy="19.3277"/>
<feGaussianBlur stdDeviation="19.3277"/>
<feColorMatrix type="matrix" values="0 0 0 0 0.560784 0 0 0 0 0.356863 0 0 0 0 0.670588 0 0 0 0.4 0"/>
<feBlend mode="normal" in2="BackgroundImageFix" result="effect1_dropShadow"/>
<feBlend mode="normal" in="SourceGraphic" in2="effect1_dropShadow" result="shape"/>
</filter>
<filter id="filter6_d" x="131.082" y="84.7775" width="111.303" height="96.3993" filterUnits="userSpaceOnUse" color-interpolation-filters="sRGB">
<feFlood flood-opacity="0" result="BackgroundImageFix"/>
<feColorMatrix in="SourceAlpha" type="matrix" values="0 0 0 0 0 0 0 0 0 0 0 0 0 0 0 0 0 0 127 0"/>
<feOffset dy="19.3277"/>
<feGaussianBlur stdDeviation="19.3277"/>
<feColorMatrix type="matrix" values="0 0 0 0 0.560784 0 0 0 0 0.356863 0 0 0 0 0.670588 0 0 0 0.4 0"/>
<feBlend mode="normal" in2="BackgroundImageFix" result="effect1_dropShadow"/>
<feBlend mode="normal" in="SourceGraphic" in2="effect1_dropShadow" result="shape"/>
</filter>
<filter id="filter7_d" x="94.1397" y="105.975" width="156.783" height="121.867" filterUnits="userSpaceOnUse" color-interpolation-filters="sRGB">
<feFlood flood-opacity="0" result="BackgroundImageFix"/>
<feColorMatrix in="SourceAlpha" type="matrix" values="0 0 0 0 0 0 0 0 0 0 0 0 0 0 0 0 0 0 127 0"/>
<feOffset dy="19.3277"/>
<feGaussianBlur stdDeviation="19.3277"/>
<feColorMatrix type="matrix" values="0 0 0 0 0.560784 0 0 0 0 0.356863 0 0 0 0 0.670588 0 0 0 0.4 0"/>
<feBlend mode="normal" in2="BackgroundImageFix" result="effect1_dropShadow"/>
<feBlend mode="normal" in="SourceGraphic" in2="effect1_dropShadow" result="shape"/>
</filter>
<filter id="filter8_d" x="82.5945" y="109.992" width="156.783" height="121.867" filterUnits="userSpaceOnUse" color-interpolation-filters="sRGB">
<feFlood flood-opacity="0" result="BackgroundImageFix"/>
<feColorMatrix in="SourceAlpha" type="matrix" values="0 0 0 0 0 0 0 0 0 0 0 0 0 0 0 0 0 0 127 0"/>
<feOffset dy="19.3277"/>
<feGaussianBlur stdDeviation="19.3277"/>
<feColorMatrix type="matrix" values="0 0 0 0 0.560784 0 0 0 0 0.356863 0 0 0 0 0.670588 0 0 0 0.4 0"/>
<feBlend mode="normal" in2="BackgroundImageFix" result="effect1_dropShadow"/>
<feBlend mode="normal" in="SourceGraphic" in2="effect1_dropShadow" result="shape"/>
</filter>
<filter id="filter9_d" x="74.9654" y="117.824" width="111.303" height="96.3993" filterUnits="userSpaceOnUse" color-interpolation-filters="sRGB">
<feFlood flood-opacity="0" result="BackgroundImageFix"/>
<feColorMatrix in="SourceAlpha" type="matrix" values="0 0 0 0 0 0 0 0 0 0 0 0 0 0 0 0 0 0 127 0"/>
<feOffset dy="19.3277"/>
<feGaussianBlur stdDeviation="19.3277"/>
<feColorMatrix type="matrix" values="0 0 0 0 0.560784 0 0 0 0 0.356863 0 0 0 0 0.670588 0 0 0 0.4 0"/>
<feBlend mode="normal" in2="BackgroundImageFix" result="effect1_dropShadow"/>
<feBlend mode="normal" in="SourceGraphic" in2="effect1_dropShadow" result="shape"/>
</filter>
</defs>
</svg>
